o House
mtllib house.mtl
usemtl brick
v -1.0 -1.0  1.0
v  1.0 -1.0  1.0
v  1.0 -1.0 -1.0
v -1.0 -1.0 -1.0
v -1.0  0.0  1.0
v  1.0  0.0  1.0
v  1.0  0.0 -1.0
v -1.0  0.0 -1.0
v -1.0  1.0  0.0
v  1.0  1.0  0.0
vt 0.0 0.0
vt 1.0 0.0
vt 0.0 1.0
vt 1.0 1.0
vt 0.5 1.0
vn -1.0  0.0  0.0
vn  1.0  0.0  0.0
vn  0.0 -1.0  0.0
vn  0.0  1.0  0.0
vn  0.0  0.0 -1.0
vn  0.0  0.0  1.0
vn  0.0  1.0  1.0
vn  0.0  1.0 -1.0
f 1/1/3 3/4/3 2/2/3
f 1/1/3 4/3/3 3/4/3
f 2/1/2 7/4/2 6/3/2
f 2/1/2 3/2/2 7/4/2
f 3/1/5 4/2/5 7/3/5
f 4/2/5 8/4/5 7/3/5
f 4/1/1 1/2/1 5/4/1
f 4/1/1 5/4/1 8/3/1
f 1/1/6 2/2/6 5/3/6
f 5/3/6 2/2/6 6/4/6
f 5/1/7 10/4/7 9/3/7
f 5/1/7 6/2/7 10/4/7
f 8/2/8 10/3/8 7/1/8
f 8/2/8 9/4/8 10/3/8
f 5/2/1 9/5/1 8/1/1
f 6/1/2 7/2/2 10/5/2
